<?xml version="1.0" encoding="utf-8"?>
<!-- Generator: Adobe Illustrator 26.2.1, SVG Export Plug-In . SVG Version: 6.00 Build 0)  -->
<svg version="1.1" id="a" xmlns="http://www.w3.org/2000/svg" xmlns:xlink="http://www.w3.org/1999/xlink" x="0px" y="0px"
	 viewBox="0 0 277.64 91" style="enable-background:new 0 0 277.64 91;" xml:space="preserve">
<style type="text/css">
	.st0{fill:#00A0A8;}
	.st1{fill:none;stroke:#00A0A8;stroke-width:1.2;stroke-miterlimit:10;}
</style>
<g>
	<path class="st0" d="M39.12,47.28l-3.93,38.06c-0.12,1.05-1.23,1.65-3.28,1.65h-1.47c-1.3,0-2.94-0.23-2.94-1.65l1.71-16.21H11.36
		L9.71,85.34c-0.12,1.05-1.23,1.65-3.28,1.65H4.96c-1.3,0-2.94-0.23-2.94-1.65l3.99-38.06c0.05-1.05,1.17-1.65,3.23-1.65h1.47
		c1.3,0,2.94,0.23,2.94,1.65l-1.58,15.27h17.79l1.65-15.27c0.05-1.05,1.17-1.65,3.23-1.65h1.47c1.3,0,2.94,0.23,2.94,1.65"/>
	<path class="st0" d="M54.09,74.71c-2.46,0-4.23-0.18-5.76-0.41c0.12,5.63,3,7.11,7.05,7.11c4.94,0,8.4-2.7,9.1-2.7
		c0.23,0,0.46,0,0.46,0.76c-0.05,0.23-0.18,2.82-0.41,3.82c-0.82,3.11-7.05,3.99-10.04,3.99c-8.17,0-13.62-3.76-13.62-12.62
		c0-12.45,6.46-18.91,16.15-18.91c8.81,0,10.87,5.22,10.87,8.22C67.9,71.96,60.67,74.71,54.09,74.71 M51.98,69.49
		c4.17,0,8.63-1.35,8.63-4.64c0-1.99-1.65-3.23-4.17-3.23c-4.81,0-6.93,3.59-7.75,7.87H51.98L51.98,69.49z"/>
	<path class="st0" d="M98.91,81.64c0,0.05-0.05,1.23-0.36,3c-0.36,1.94-2.87,2.64-4.58,2.64c-3.52,0-5.76-1.47-6.29-4.94
		c-1.94,3.11-4.94,4.99-8.34,4.99c-5.05,0-9.63-3.76-9.63-12.75c0-11.16,5.46-18.84,13.51-18.84c3.46,0,5.99,1.94,7.28,3.18
		c0.59-1.99,0.88-2.82,3.35-2.82h0.59c1.94,0,2.7,0.46,2.7,1.35c0,0.18-2.23,20.68-2.23,21.84c0,1.76,0.76,2.12,1.88,2.12
		c0.76,0,1.41-0.36,1.65-0.36C98.74,81.06,98.91,81.18,98.91,81.64 M89.39,63.56c-1.05-0.88-2.59-1.88-4.69-1.88
		c-5.35,0-7.52,5.11-7.52,12.45c0,5.05,1.76,7.11,4.64,7.11c2.17,0,4.53-1.76,6.11-5.76c0.36-3.18,0.76-8.17,0.88-8.99
		C88.93,65.68,89.11,64.85,89.39,63.56"/>
	<path class="st0" d="M113.89,44.06c0,0-3.64,34.42-3.64,35.24c0,1.71,0.76,2.12,1.88,2.12c0.76,0,1.35-0.36,1.65-0.36
		c0.29,0,0.41,0.12,0.41,0.59c0,0.05,0,1.23-0.3,3c-0.36,1.94-2.87,2.64-4.58,2.64c-4.17,0-6.46-1.99-6.46-6.81
		c0-2.12,3.76-36.24,3.76-36.29c0.12-1.05,0.88-1.58,2.82-1.58h1.88C113.24,42.6,113.89,43.19,113.89,44.06"/>
	<path class="st0" d="M129.34,50.34l-0.59,5.81h3.99c0.82,0,0.94,0.36,0.94,1.17c0,1.47-0.82,4.76-3.11,4.76h-2.46
		c0,0-1.76,16.33-1.76,16.85c0,1.82,0.82,2.46,2.17,2.46c1.35,0,2.06-0.41,2.35-0.41c0.29,0,0.46,0.12,0.46,0.64
		c0,0.05-0.05,1.35-0.36,3c-0.36,1.94-2.82,2.64-4.76,2.64c-3.93,0-7.28-1.76-7.28-7.28c0-1.47,1.88-17.92,1.88-17.92h-1.82
		c-1,0-1.35-0.64-1.35-1.94c0-1.94,0.36-3.99,1.94-3.99h1.82l0.64-5.81c0.12-1.12,1.23-1.65,3.23-1.65h1.12
		C128.51,48.68,129.33,49.39,129.34,50.34"/>
	<path class="st0" d="M146.42,44.24l-1.65,16.09c2.41-2.82,5.81-4.58,9.22-4.58c5.4,0,7.75,2.7,7.75,7.52
		c0,1.17-1.58,14.92-1.58,16.03c0,1.71,0.76,2.12,1.94,2.12c0.76,0,1.35-0.36,1.65-0.36s0.41,0.12,0.41,0.59
		c0,0.05-0.05,1.23-0.36,3c-0.3,1.94-2.87,2.64-4.58,2.64c-4.11,0-6.4-1.99-6.4-6.81c0-1.58,1.41-14.15,1.41-15.1
		c0-2.29-1.05-3.52-3.64-3.52c-2.35,0-4.94,1.76-6.58,5.52l-1.88,17.97c-0.12,1.05-1.3,1.65-3.28,1.65h-1.12
		c-2.06,0-2.94-0.76-2.94-1.58l4.35-41.11c0.12-1.12,1.23-1.65,3.23-1.65h1.12C145.6,42.66,146.42,43.36,146.42,44.24"/>
	<path class="st0" d="M175.67,57.68c0,0-2.23,20.55-2.23,21.61c0,1.71,0.71,2.12,1.88,2.12c0.76,0,1.35-0.36,1.65-0.36
		c0.3,0,0.41,0.12,0.41,0.59c0,0.05-0.05,1.23-0.36,3c-0.3,1.94-2.87,2.64-4.58,2.64c-4.11,0-6.4-1.99-6.4-6.75
		c0-1.94,2.23-22.84,2.29-22.84c0.12-1.12,1.23-1.65,3.23-1.65h1.17C174.79,56.05,175.67,56.76,175.67,57.68"/>
	<path class="st0" d="M207.8,81.64c0,0.05-0.05,1.23-0.36,3c-0.36,1.94-2.87,2.64-4.58,2.64c-3.52,0-5.76-1.47-6.29-4.94
		c-1.94,3.11-4.94,4.99-8.34,4.99c-5.05,0-9.63-3.76-9.63-12.75c0-11.16,5.46-18.84,13.51-18.84c3.46,0,5.99,1.94,7.28,3.18
		c0.59-1.99,0.88-2.82,3.35-2.82h0.59c1.94,0,2.7,0.46,2.7,1.35c0,0.18-2.23,20.68-2.23,21.84c0,1.76,0.76,2.12,1.88,2.12
		c0.76,0,1.41-0.36,1.65-0.36c0.3,0,0.46,0.12,0.46,0.59 M198.27,63.56c-1.05-0.88-2.59-1.88-4.69-1.88
		c-5.35,0-7.52,5.11-7.52,12.45c0,5.05,1.76,7.11,4.64,7.11c2.17,0,4.53-1.76,6.11-5.76c0.36-3.18,0.76-8.17,0.88-8.99
		C197.82,65.68,198,64.85,198.27,63.56"/>
	<path class="st0" d="M238.64,81.64c0,0.05-0.05,1.23-0.36,3c-0.3,1.94-2.87,2.64-4.58,2.64c-4.11,0-6.4-1.99-6.4-6.81
		c0-1.58,1.41-14.15,1.41-15.1c0-2.29-1.06-3.52-3.64-3.52c-2.35,0-5.05,1.94-6.64,5.7c-0.71,7.7-1.82,17.79-1.82,17.79
		c-0.12,1.05-1.23,1.65-3.28,1.65h-1.12c-2.06,0-2.94-0.76-2.94-1.58c1.41-13.85,2.35-21.9,2.35-24.31c0-1.41-0.05-2.12-0.05-2.82
		c0-1.3,2.94-1.82,5.52-1.82c1.41,0,1.76,2.17,1.76,4.35c2.23-2.94,5.99-5.05,9.63-5.05c5.4,0,7.75,2.7,7.75,7.52
		c0,1.17-1.58,14.92-1.58,16.03c0,1.71,0.76,2.12,1.94,2.12c0.76,0,1.35-0.36,1.65-0.36C238.53,81.06,238.64,81.19,238.64,81.64"/>
	<path class="st0" d="M262.47,58.97c0,1.12-1.71,3.87-2.7,3.87c-0.23,0-0.59-0.12-1.06-0.29c-1-0.41-2.35-0.94-4.05-0.94
		c-2.64,0-3.99,1.23-3.99,3.05s1.71,2.7,4.17,3.99c3.87,1.94,7.05,3.93,7.05,8.81c0,5.99-4.76,9.8-11.74,9.8
		c-3.46,0-8.58-1.05-8.58-3.52c0-3.64,1-4.46,1.35-4.46c0.18,0,0.59,0.18,1.06,0.46c1.05,0.59,3.05,1.65,5.58,1.65
		c3.11,0,4.81-1.47,4.81-3.41c0-2.23-2.29-3.23-4.71-4.46c-3.52-1.88-6.58-3.76-6.58-8.45c0-5.88,4.87-9.34,11.28-9.34
		C257.36,55.74,262.47,56.5,262.47,58.97"/>
	<path class="st0" d="M177.92,45.19c-0.05-0.08-0.1-0.15-0.17-0.24c-0.02-0.02-0.04-0.05-0.05-0.05c-0.11-0.12-0.25-0.23-0.39-0.32
		l-0.05-0.03l-0.05-0.02c-0.05-0.03-0.1-0.05-0.17-0.08l-0.09-0.04c0,0-0.08-0.03-0.12-0.04s-0.1-0.03-0.15-0.04
		c-0.03,0-0.05-0.01-0.08-0.02c0,0-0.42-0.09-1.38,0.05c-0.5,0.08-1.18-0.15-1.55-0.28c-0.29-0.1-0.56-0.23-0.81-0.4
		c-0.31-0.19-0.58-0.42-0.81-0.67c-0.09-0.09-0.18-0.17-0.27-0.24c-0.04-0.03-0.08-0.05-0.11-0.08c-0.06-0.05-0.12-0.08-0.18-0.11
		c-0.05-0.04-0.11-0.05-0.17-0.08c-0.06-0.03-0.1-0.05-0.19-0.08c-0.06-0.02-0.13-0.05-0.18-0.05l-0.08-0.02h-0.04
		c-0.46-0.08-0.9,0.04-1.27,0.33c-0.18,0.14-0.32,0.3-0.46,0.49l-0.21,0.31c-0.62,0.93-0.78,2.46,0.02,3.4
		c0.22,0.26,0.5,0.53,0.78,0.77l-0.37,1.06c-0.27,0.76,0.19,1.55,1.09,1.86l2.17,0.76c0.83,0.29,1.54-0.04,1.82-0.83l0.41-1.17h0.09
		c0.06,0,0.17,0.02,0.31,0.01c0.08,0,0.14,0,0.22,0c0,0,0.27-0.03,0.35-0.04h0.02l0.19-0.03c0.18-0.03,0.35-0.08,0.51-0.15
		c0.04-0.02,0.08-0.04,0.13-0.06c0.12-0.06,0.23-0.13,0.33-0.21l0.1-0.08c0.1-0.08,0.21-0.18,0.31-0.28
		c0.02-0.02,0.04-0.05,0.05-0.05c0.44-0.49,0.71-1.12,0.74-1.72l0.03-0.4c0.02-0.38-0.05-0.74-0.22-1.06L177.92,45.19L177.92,45.19z
		"/>
	<path class="st0" d="M164.73,22.74c0.04-0.15,0.08-0.31,0.11-0.46c0.13-0.45,0.29-0.88,0.47-1.31c0.03-0.06,0.05-0.13,0.08-0.19
		l0.1-0.22c0.03-0.05,0.08-0.13,0.11-0.21c0.05-0.08,0.08-0.15,0.11-0.19c0.06-0.12,0.14-0.23,0.22-0.35
		c0.08-0.13,0.17-0.25,0.25-0.36c0.33-0.46,0.71-0.86,1.14-1.2c0.09-0.08,0.19-0.15,0.29-0.22c0.19-0.14,0.41-0.27,0.63-0.37
		c0.11-0.05,0.22-0.1,0.33-0.15s0.23-0.08,0.36-0.12c0.32-0.1,0.66-0.18,1.01-0.22l0.19-0.02c0.19-0.02,0.39-0.03,0.59-0.04
		c0.1,0,0.22,0,0.32,0c0.15,0,0.3,0,0.45,0.02h0.05c0.08,0,0.15,0.01,0.23,0.02c0.15,0.02,0.32,0.04,0.47,0.06
		c0,0,0.19,0.03,0.23,0.04c0.24,0.05,0.46,0.1,0.67,0.17c0.08,0.03,0.15,0.05,0.22,0.08c0.15,0.05,0.29,0.1,0.42,0.17
		c0.49,0.22,0.94,0.5,1.32,0.83c0.36-0.74,0.94-1.31,1.85-1.42c0.35-0.04,0.69,0,1.04,0.12c-0.08-0.14-0.15-0.28-0.22-0.41
		c-0.5-0.85-1.24-1.65-2.12-2.29c-0.31-0.22-0.63-0.42-0.96-0.62c-0.49-0.28-1.04-0.52-1.58-0.72c-0.59-0.21-1.21-0.36-1.85-0.47
		c-0.36-0.05-0.76-0.1-1.19-0.13h-0.11l-0.17-0.01c-0.88-0.03-1.77,0.05-2.6,0.23c-0.11,0.02-0.22,0.05-0.33,0.08h-0.09l-0.28,0.1
		l-0.36,0.11l-0.42,0.15c-0.49,0.19-0.93,0.42-1.39,0.69c-0.23,0.14-0.46,0.3-0.73,0.49l-0.04,0.03c-0.5,0.36-1,0.79-1.45,1.27
		l-0.03,0.03c-0.26,0.27-0.5,0.54-0.72,0.81l-0.03,0.03c-0.19,0.23-0.37,0.49-0.57,0.78l-0.11,0.17c-0.21,0.32-0.37,0.59-0.51,0.85
		c-0.12,0.22-0.24,0.46-0.36,0.69c-0.76,1.55-1.23,3.32-1.39,5.12c-0.17,1.82-0.04,3.76,0.41,5.78c0.1,0.46,0.22,0.91,0.35,1.34
		c0.13,0.45,0.27,0.88,0.42,1.31c0.15,0.42,0.32,0.83,0.49,1.25c0.18,0.41,0.36,0.81,0.55,1.2l0.27,0.53l0.29,0.54
		c0.19,0.37,0.4,0.73,0.59,1.07c0.35,0.59,0.73,1.2,1.24,1.98c0.22,0.32,0.42,0.62,0.63,0.91c0.41,0.57,0.83,1.14,1.27,1.68
		c0.22,0.27,0.42,0.52,0.63,0.77c0.36,0.42,0.71,0.82,1.05,1.19l0.21,0.22l0.59,0.62c0.06,0.06,0.12,0.12,0.19,0.19
		c0.08-0.64,0.31-1.25,0.63-1.72l0.21-0.31c0.18-0.26,0.38-0.49,0.63-0.68c0.4-0.32,0.86-0.49,1.34-0.53
		c-0.32-0.56-0.63-1.1-0.94-1.65c-0.65-1.18-1.24-2.29-1.78-3.4c-0.15-0.3-0.3-0.6-0.44-0.91c-0.15-0.31-0.29-0.63-0.44-0.95
		c-0.14-0.32-0.29-0.63-0.42-0.95l-0.21-0.47l-0.22-0.55c-0.53-1.27-0.93-2.6-1.2-3.94c-0.1-0.56-0.23-1.31-0.29-2.04
		c-0.03-0.35-0.04-0.69-0.05-1.01c0-0.33,0-0.67,0.02-0.99c0.05-0.67,0.14-1.31,0.28-1.91"/>
	<path class="st0" d="M180.43,21.73c-0.14-1.18-1.4-3.38-2.67-3.82c-0.23-0.08-0.47-0.09-0.7-0.06c-1.85,0.22-1.82,3.63-1.72,4.53
		c0.13,1.06,0.83,1.88,1.78,2.36l0,0c0.36,0,0.72,0.11,1.09,0.06C179.62,24.62,180.61,23.24,180.43,21.73"/>
	<path class="st0" d="M200.57,26.66c-0.19-0.49-0.4-0.95-0.66-1.41l-0.19-0.33l-0.22-0.34l-0.15-0.28l-0.05-0.02l-0.03-0.04
		c-0.06-0.09-0.14-0.19-0.19-0.25c-0.59-0.73-1.27-1.38-2.03-1.94c-0.36-0.25-0.72-0.49-1.1-0.7c-0.56-0.32-1.14-0.58-1.73-0.79
		c-0.56-0.19-1.13-0.35-1.68-0.44c-1.3-0.22-2.59-0.15-3.75,0.19c-0.15,0.05-0.32,0.1-0.46,0.15c-0.15,0.05-0.3,0.11-0.45,0.18
		c0.06,0.02,0.12,0.05,0.18,0.08c0.27,0.12,0.5,0.28,0.71,0.49c0.42,0.42,0.79,1.15,0.54,2.27c0.64-0.03,1.32,0.08,1.99,0.31
		c0.08,0.03,0.15,0.05,0.23,0.08c0.91,0.36,1.82,0.96,2.55,1.71c0.79,0.79,1.27,1.67,1.46,2.63c0.11,0.5,0.15,1.05,0.13,1.61
		c-0.02,0.28-0.04,0.57-0.08,0.86c-0.01,0.05-0.03,0.13-0.04,0.22c-0.01,0.08-0.03,0.18-0.05,0.26l-0.02,0.09
		c-0.02,0.1-0.05,0.21-0.08,0.35c-0.08,0.32-0.19,0.67-0.33,1.04c-0.15,0.39-0.35,0.79-0.57,1.2c-0.09,0.17-0.19,0.35-0.3,0.51
		l-0.08,0.11c-0.11,0.18-0.22,0.36-0.33,0.51c-0.38,0.53-0.82,1.05-1.28,1.55c-0.5,0.54-1.07,1.04-1.5,1.41
		c-0.27,0.22-0.54,0.44-0.82,0.64c-0.82,0.62-1.69,1.18-2.6,1.68l-0.49,0.28l-0.47,0.25c-0.15,0.08-0.3,0.15-0.45,0.23
		c-0.15,0.08-0.31,0.15-0.47,0.24c-0.66,0.33-1.26,0.63-1.85,0.9c-1.1,0.52-2.26,1.03-3.5,1.54c-0.63,0.26-1.27,0.51-1.94,0.76
		c0.08,0.1,0.15,0.21,0.22,0.32l0.05,0.1c0.25,0.46,0.36,0.97,0.32,1.51l-0.03,0.4c-0.04,0.67-0.31,1.37-0.73,1.95
		c0.4-0.04,0.82-0.09,1.24-0.15l0.36-0.05l0.26-0.05c0.5-0.08,1.03-0.17,1.58-0.28c1.38-0.28,2.76-0.63,4.09-1.04
		c0.86-0.28,1.55-0.52,2.19-0.76c0.37-0.14,0.74-0.29,1.13-0.46l0.58-0.25l0.53-0.24c0.78-0.36,1.58-0.78,2.35-1.25
		c0.73-0.45,1.5-0.98,2.26-1.58c1.6-1.28,2.92-2.72,3.93-4.25c0.76-1.14,1.35-2.36,1.78-3.63l0.02-0.05
		c0.06-0.19,0.12-0.39,0.18-0.59l0.08-0.28c0.04-0.13,0.06-0.25,0.09-0.38c0.05-0.23,0.1-0.46,0.14-0.7
		c0.12-0.68,0.18-1.39,0.19-2.1c0-0.87-0.08-1.71-0.24-2.49C200.88,27.66,200.73,27.16,200.57,26.66"/>
	<path class="st0" d="M186.72,26.32c0.64-0.63,2.8-3.26,1.49-4.59c-0.15-0.17-0.36-0.29-0.59-0.37c-1.27-0.45-3.6,0.47-4.46,1.31
		c-0.51,0.5-0.82,1.17-0.87,1.85c-0.05,0.73,0.19,1.4,0.68,1.9c0.26,0.27,0.57,0.46,0.92,0.59
		C184.84,27.33,185.96,27.06,186.72,26.32"/>
	<path class="st0" d="M214.89,6.77c-3.09,0-5.64,2.28-6.08,5.25c-10.83,1.61-21-3.72-27.81-7.27l-0.67-0.35
		c-7.04-3.68-12.95-4.23-18.62-1.73c-3.86,1.71-7.3,4.84-9.67,8.82c-2.55,4.3-3.82,9.4-3.66,14.79h0.02
		c0.09,3.59,0.82,7.42,2.3,11.36h0.03c0.64,1.6,1.41,3.18,2.32,4.71c1.78,3.01,6.88,8.41,12.01,10.67l0,0
		c1.51,0.67,2.87,1.1,4.14,1.07c1.68-0.05,3.09-0.63,4.18-1.82c-0.35,0.04-0.7,0-1.07-0.13l-2.17-0.76
		c-0.08-0.03-0.15-0.05-0.22-0.08c-0.51-0.22-0.9-0.58-1.15-0.99c-0.65-0.03-1.41-0.23-2.26-0.6c-3.79-1.68-8.31-6.12-10.15-9.22
		c-0.78-1.32-1.46-2.7-2.02-4.11h0.02c-2.91-7.74-2.58-14.93-0.22-20.47c2.09-4.78,5.59-8.14,9.13-9.7
		c4.52-1.99,9.38-1.47,15.29,1.62l0.66,0.35c7.27,3.81,18.15,9.51,30.25,7.66c1.04,1.94,3.08,3.25,5.42,3.25
		c3.4,0,6.14-2.76,6.14-6.14s-2.76-6.14-6.14-6.14 M214.89,15.93c-1.66,0-3-1.34-3-3s1.34-3,3-3s3,1.34,3,3
		C217.89,14.59,216.55,15.93,214.89,15.93"/>
	<circle class="st1" cx="270.43" cy="55.97" r="5.35"/>
	<path class="st0" d="M271.91,56.85c0.28,0.36,0.46,0.88,0.44,1.59h-1.56c-0.01-0.62-0.19-1.1-0.42-1.41
		c-0.13-0.17-0.26-0.21-0.45-0.21h-0.02l-0.26,1.62h-1.46l0.79-5.01h1.82c1.31,0,1.95,0.46,1.95,1.37c0,0.82-0.59,1.39-1.41,1.58
		v0.04C271.55,56.48,271.74,56.65,271.91,56.85L271.91,56.85z M271.23,55.09c0-0.36-0.19-0.49-0.62-0.49h-0.37l-0.17,1.04h0.42
		C270.97,55.65,271.23,55.5,271.23,55.09L271.23,55.09z"/>
</g>
</svg>
